<?xml version="1.0" encoding="UTF-8"?>
<svg id="Layer_1" xmlns="http://www.w3.org/2000/svg" version="1.1" viewBox="0 0 453.6 134.14">
  <!-- Generator: Adobe Illustrator 29.7.1, SVG Export Plug-In . SVG Version: 2.1.1 Build 8)  -->
  <defs>
    <style>
      .st0 {
        fill: none;
      }

      .st1 {
        fill: #6130de;
      }

      .st2 {
        fill: #ff6100;
      }
    </style>
  </defs>
  <g>
    <path class="st1" d="M351.05,48.04v-12.74c0-.63-.51-1.14-1.14-1.14h-7.19c-15.39,0-27.91,12.52-27.91,27.91v62.56c0,.47.38.85.85.85h13.49c.47,0,.85-.38.85-.85v-62.22c0-7.3,5.94-13.24,13.24-13.24h6.67c.63,0,1.14-.51,1.14-1.14"/>
    <path class="st1" d="M208.64,10.8h-7c-3.97,0-7.19,3.23-7.19,7.19v106.35c0,.63.51,1.14,1.14,1.14h13.05c.63,0,1.14-.51,1.14-1.14V11.94c0-.63-.51-1.14-1.14-1.14"/>
    <path class="st1" d="M55.93,33.55c-17.64.11-28.24,8.34-34.03,15.23-7.05,8.4-11.1,19.71-11.1,31.03,0,11.44,3.94,22.75,10.8,31.03,8.19,9.88,20.06,15.15,34.34,15.24,16.27-.1,29.63-7.13,37.63-19.79.32-.51.17-1.21-.33-1.55l-10.65-7.14c-.52-.35-1.21-.21-1.57.3-5.79,8.26-15.16,13.23-25.08,13.29-17.01-.11-30.84-14.29-30.84-31.61s13.83-31.48,30.84-31.61c10.37.08,19.98,5.4,25.71,14.23.33.52,1.01.68,1.53.38l10.65-6.21c.26-.15.45-.4.53-.7.08-.29.03-.6-.12-.86-8.05-13.61-21.65-21.16-38.3-21.26"/>
    <path class="st1" d="M290.98,74.02h-56.64c.14-7.05,3.41-13.72,9.22-18.81,5.45-4.77,12.4-7.51,19.05-7.51,16.41,0,28.08,13.84,28.37,26.32M263.87,33.61c-.23,0-.47,0-.7,0-18.47.03-44.47,14.41-44.47,46.26,0,15.59,5.47,28.17,15.82,36.4,7.72,6.14,18.36,9.81,28.45,9.81,15.04,0,27.01-6.1,35.56-18.14.18-.25.24-.55.19-.86-.06-.31-.23-.57-.49-.74l-10.32-6.96c-.51-.34-1.2-.21-1.56.3-5.68,7.97-13.44,11.85-23.71,11.85-16.35,0-27.96-12.54-28.23-23.86h69.96c.58,0,1.06-.43,1.13-1,1.83-14.93-1.97-29.39-10.16-38.68-8.08-9.17-19.51-14.39-31.47-14.39"/>
    <path class="st1" d="M170.43,74.02h-56.64c.14-7.05,3.41-13.73,9.22-18.81,5.45-4.77,12.4-7.51,19.05-7.51,16.41,0,28.08,13.83,28.37,26.32M142.62,33.62c-18.47.03-44.47,14.41-44.47,46.26,0,15.59,5.47,28.17,15.82,36.4,7.72,6.14,18.36,9.81,28.45,9.81,15.04,0,27.01-6.1,35.56-18.14.18-.25.24-.56.19-.86-.06-.31-.23-.57-.49-.74l-10.32-6.96c-.51-.34-1.2-.21-1.56.3-5.68,7.97-13.44,11.85-23.71,11.85-16.35,0-27.96-12.54-28.23-23.86h69.96c.58,0,1.06-.43,1.13-1,1.83-14.93-1.97-29.39-10.16-38.68-8.23-9.35-19.95-14.59-32.17-14.38"/>
    <path class="st2" d="M433.31,52.37c-.2-.26-.49-.42-.82-.44-.32-.02-.65.1-.88.33l-9.03,9.03c-.38.38-.44.99-.13,1.45,3.59,5.26,5.48,11.42,5.48,17.82s-1.9,12.55-5.48,17.82c-.31.45-.26,1.06.13,1.45l9.03,9.03c.21.22.51.34.81.34.03,0,.05,0,.08,0,.33-.02.62-.18.82-.44,6.2-8.16,9.49-17.91,9.49-28.19s-3.28-20.03-9.49-28.19"/>
    <path class="st2" d="M386.06,80.55c0,5.84,4.75,10.6,10.6,10.6s10.6-4.75,10.6-10.6-4.75-10.6-10.6-10.6-10.6,4.75-10.6,10.6"/>
    <path class="st1" d="M415.99,106.55c-.39-.39-1.01-.44-1.46-.12-5.28,3.72-11.49,5.68-17.95,5.68-17.29,0-31.36-14.16-31.36-31.55s14.07-31.56,31.36-31.56c6.46,0,12.67,1.96,17.95,5.68.46.32,1.07.27,1.46-.12l9.02-9.02c.23-.23.35-.55.33-.88-.02-.32-.18-.62-.43-.82-8.15-6.36-17.92-9.73-28.26-9.73-25.44,0-46.15,20.83-46.15,46.44s20.7,46.44,46.15,46.44c10.33,0,20.11-3.36,28.26-9.73.25-.2.41-.5.43-.82.02-.33-.1-.65-.33-.88l-9.02-9.02Z"/>
  </g>
  <rect class="st0" x="10.8" y="7.59" width="432" height="118.95"/>
  <rect class="st0" width="453.6" height="134.13"/>
</svg>