<?xml version="1.0" encoding="UTF-8"?>
<svg id="Layer_1" xmlns="http://www.w3.org/2000/svg" version="1.1" viewBox="0 0 432 181.71">
  <!-- Generator: Adobe Illustrator 29.6.1, SVG Export Plug-In . SVG Version: 2.1.1 Build 9)  -->
  <defs>
    <style>
      .st0 {
        fill: none;
      }

      .st1 {
        fill: #6130de;
      }

      .st2 {
        fill: #ff6100;
      }

      .st3 {
        fill: #414042;
      }
    </style>
  </defs>
  <g>
    <g>
      <path class="st3" d="M208.24,144.89h4.68l.52,2.6h.26c.57-.57,1.2-1.09,1.92-1.56,1.25-.78,3.12-1.56,5.62-1.56,6.24,0,10.41,4.11,10.41,10.93v15.61h-5.2v-15.61c0-3.39-2.65-6.24-6.24-6.24-3.9,0-6.76,2.86-6.76,6.24v15.61h-5.2v-26.02Z"/>
      <path class="st3" d="M261.58,163.36c-1.25,3.39-4.94,8.07-11.71,8.07-7.54,0-13.01-5.47-13.01-13.53s5.46-13.53,13.01-13.53c7.02,0,12.49,5.46,12.49,12.74,0,.78-.1,1.41-.16,1.88l-.1.73h-20.03c.57,4.42,3.64,7.28,7.8,7.28,3.12,0,5.41-1.82,6.24-3.64h5.46ZM257.42,155.82c-.57-4.16-3.38-7.02-7.55-7.02-4.42,0-7.02,2.86-7.8,7.02h15.35Z"/>
      <path class="st3" d="M268.88,149.83h-4.16v-4.94h4.16v-7.28h5.2v7.28h5.98v4.94h-5.98v14.83c0,1.04.52,1.56,1.56,1.56h4.42v4.68h-5.46c-3.69,0-5.72-2.08-5.72-5.47v-15.61Z"/>
      <path class="st3" d="M282.94,144.89h5.46l4.94,19.25h1.04l5.1-19.25h6.97l5.1,19.25h1.04l4.94-19.25h5.46l-7.02,26.02h-7.55l-4.94-18.73h-1.04l-4.94,18.73h-7.54l-7.02-26.02Z"/>
      <path class="st3" d="M325.11,157.9c0-8.07,5.46-13.53,13.01-13.53s13.01,5.46,13.01,13.53-5.46,13.53-13.01,13.53-13.01-5.47-13.01-13.53ZM345.92,157.9c0-5.41-3.38-8.85-7.8-8.85s-7.8,3.43-7.8,8.85,3.38,8.85,7.8,8.85,7.8-3.44,7.8-8.85Z"/>
      <path class="st3" d="M356.6,144.89h4.42l.52,2.34h.26c.88-.99,1.72-2.34,4.94-2.34h4.68v4.69h-4.16c-3.64,0-5.46,1.82-5.46,5.41v15.92h-5.2v-26.02Z"/>
      <path class="st3" d="M375.6,134.49h5.2v22.37l10.93-11.97h6.24l-11.71,12.75,12.23,13.27h-6.24l-11.45-12.49v12.49h-5.2v-36.42Z"/>
      <path class="st3" d="M405.02,163.1c0,1.56,1.82,3.9,5.98,3.9,3.9,0,5.46-1.77,5.46-3.38,0-1.82-.99-2.91-3.9-3.39l-4.68-.78c-4.99-.83-7.54-3.12-7.54-7.55,0-4.16,3.38-7.54,10.41-7.54,7.55,0,10.67,5.2,10.67,8.06h-5.2c0-1.56-1.56-3.64-5.46-3.64-3.69,0-5.2,1.51-5.2,3.12s1.56,2.66,3.9,3.12l4.68.78c5.05.83,7.54,3.44,7.54,7.81s-3.38,7.8-10.67,7.8c-8.32,0-11.19-5.47-11.19-8.32h5.2Z"/>
    </g>
    <path class="st1" d="M334.29,45.75v-12.14c0-.6-.49-1.08-1.08-1.08h-6.85c-14.66,0-26.58,11.92-26.58,26.58v59.59c0,.45.36.81.81.81h12.85c.45,0,.81-.36.81-.81v-59.25c0-6.95,5.66-12.61,12.61-12.61h6.35c.6,0,1.08-.49,1.08-1.08"/>
    <path class="st1" d="M198.66,10.29h-6.66c-3.78,0-6.85,3.07-6.85,6.85v101.29c0,.6.49,1.08,1.08,1.08h12.43c.6,0,1.08-.49,1.08-1.08V11.37c0-.6-.48-1.08-1.08-1.08"/>
    <path class="st1" d="M53.22,31.95c-16.8.11-26.9,7.95-32.41,14.51-6.72,8-10.57,18.77-10.57,29.55,0,10.9,3.75,21.67,10.29,29.56,7.8,9.41,19.11,14.43,32.7,14.51,15.49-.09,28.22-6.79,35.84-18.85.31-.49.17-1.15-.32-1.48l-10.14-6.8c-.49-.33-1.15-.2-1.5.29-5.51,7.87-14.44,12.6-23.88,12.66-16.2-.11-29.37-13.61-29.37-30.11s13.18-29.98,29.37-30.1c9.88.08,19.03,5.14,24.48,13.55.32.49.96.65,1.46.36l10.14-5.92c.25-.15.43-.38.51-.67.07-.28.03-.57-.11-.82-7.67-12.96-20.62-20.15-36.47-20.25"/>
    <path class="st1" d="M277.08,70.5h-53.94c.13-6.71,3.25-13.07,8.78-17.91,5.19-4.54,11.81-7.15,18.14-7.15,15.63,0,26.74,13.18,27.02,25.07M251.26,32.01c-.22,0-.45,0-.67,0-17.59.03-42.35,13.72-42.35,44.06,0,14.84,5.21,26.83,15.07,34.67,7.36,5.85,17.48,9.34,27.09,9.34,14.33,0,25.72-5.81,33.87-17.28.17-.24.23-.53.18-.82-.05-.29-.22-.55-.47-.71l-9.83-6.63c-.49-.32-1.14-.2-1.48.28-5.41,7.59-12.8,11.29-22.58,11.29-15.57,0-26.62-11.94-26.89-22.72h66.63c.55,0,1.01-.41,1.08-.95,1.74-14.22-1.88-27.99-9.67-36.84-7.69-8.73-18.58-13.7-29.97-13.7"/>
    <path class="st1" d="M162.26,70.5h-53.94c.13-6.72,3.25-13.07,8.78-17.92,5.19-4.54,11.81-7.15,18.14-7.15,15.63,0,26.74,13.18,27.02,25.07M135.78,32.02c-17.59.03-42.35,13.72-42.35,44.06,0,14.84,5.21,26.83,15.07,34.67,7.36,5.85,17.48,9.34,27.09,9.34,14.33,0,25.72-5.81,33.87-17.28.17-.24.23-.53.18-.82-.06-.29-.22-.55-.47-.71l-9.83-6.63c-.49-.32-1.14-.2-1.48.28-5.41,7.59-12.8,11.29-22.58,11.29-15.57,0-26.62-11.94-26.89-22.72h66.63c.55,0,1.01-.41,1.08-.95,1.74-14.22-1.87-27.99-9.67-36.84-7.84-8.9-19-13.9-30.64-13.7"/>
    <path class="st2" d="M412.63,49.87c-.19-.24-.47-.4-.78-.42-.31-.02-.62.09-.84.32l-8.6,8.6c-.37.37-.42.95-.12,1.38,3.41,5.01,5.22,10.88,5.22,16.97s-1.8,11.95-5.22,16.97c-.3.43-.24,1.01.12,1.38l8.6,8.6c.2.2.48.32.77.32.02,0,.05,0,.07,0,.31-.02.59-.17.78-.42,5.91-7.77,9.03-17.05,9.03-26.85s-3.12-19.08-9.03-26.85"/>
    <path class="st2" d="M367.62,76.72c0,5.57,4.53,10.09,10.09,10.09s10.09-4.53,10.09-10.09-4.53-10.09-10.09-10.09-10.09,4.53-10.09,10.09"/>
    <path class="st1" d="M396.13,101.47c-.37-.37-.96-.42-1.39-.11-5.03,3.54-10.94,5.41-17.09,5.41-16.47,0-29.86-13.48-29.86-30.05s13.4-30.05,29.86-30.05c6.15,0,12.06,1.87,17.09,5.41.44.31,1.02.26,1.39-.11l8.59-8.59c.22-.22.34-.53.32-.84-.02-.31-.17-.59-.41-.78-7.76-6.06-17.07-9.27-26.91-9.27-24.23,0-43.95,19.84-43.95,44.23s19.72,44.23,43.95,44.23c9.84,0,19.15-3.2,26.91-9.27.24-.19.39-.47.41-.78.02-.31-.1-.62-.32-.84l-8.59-8.59Z"/>
    <rect class="st0" x="10.24" y="10.29" width="411.43" height="161.14"/>
  </g>
  <rect class="st0" x="-.05" y="0" width="432" height="181.71"/>
</svg>