<?xml version="1.0" encoding="UTF-8"?>
<svg id="Layer_1" xmlns="http://www.w3.org/2000/svg" version="1.1" viewBox="0 0 432 181.71">
  <!-- Generator: Adobe Illustrator 29.6.1, SVG Export Plug-In . SVG Version: 2.1.1 Build 9)  -->
  <defs>
    <style>
      .st0 {
        fill: none;
      }

      .st1 {
        fill: #6130de;
      }

      .st2 {
        fill: #ff6100;
      }

      .st3 {
        fill: #414042;
      }
    </style>
  </defs>
  <path class="st1" d="M334.34,45.75v-12.14c0-.6-.49-1.08-1.08-1.08h-6.85c-14.66,0-26.58,11.92-26.58,26.58v59.59c0,.45.36.81.81.81h12.85c.45,0,.81-.36.81-.81v-59.25c0-6.95,5.66-12.61,12.61-12.61h6.35c.6,0,1.08-.49,1.08-1.08"/>
  <path class="st1" d="M198.7,10.29h-6.66c-3.78,0-6.85,3.07-6.85,6.85v101.29c0,.6.49,1.08,1.08,1.08h12.43c.6,0,1.08-.49,1.08-1.08V11.37c0-.6-.48-1.08-1.08-1.08"/>
  <path class="st1" d="M53.27,31.95c-16.8.11-26.9,7.95-32.41,14.51-6.72,8-10.57,18.77-10.57,29.55,0,10.9,3.75,21.67,10.29,29.56,7.8,9.41,19.11,14.43,32.7,14.51,15.49-.09,28.22-6.79,35.84-18.85.31-.49.17-1.15-.32-1.48l-10.14-6.8c-.49-.33-1.15-.2-1.5.29-5.51,7.87-14.44,12.6-23.88,12.66-16.2-.11-29.37-13.61-29.37-30.11s13.18-29.98,29.37-30.1c9.88.08,19.03,5.14,24.48,13.55.32.49.96.65,1.46.36l10.14-5.92c.25-.15.43-.38.51-.67.07-.28.03-.57-.11-.82-7.67-12.96-20.62-20.15-36.47-20.25"/>
  <path class="st1" d="M277.13,70.5h-53.94c.13-6.71,3.25-13.07,8.78-17.91,5.19-4.54,11.81-7.15,18.14-7.15,15.63,0,26.74,13.18,27.02,25.07M251.31,32.01c-.22,0-.45,0-.67,0-17.59.03-42.35,13.72-42.35,44.06,0,14.84,5.21,26.83,15.07,34.67,7.36,5.85,17.48,9.34,27.09,9.34,14.33,0,25.72-5.81,33.87-17.28.17-.24.23-.53.18-.82-.05-.29-.22-.55-.47-.71l-9.83-6.63c-.49-.32-1.14-.2-1.48.28-5.41,7.59-12.8,11.29-22.58,11.29-15.57,0-26.62-11.94-26.89-22.72h66.63c.55,0,1.01-.41,1.08-.95,1.74-14.22-1.88-27.99-9.67-36.84-7.69-8.73-18.58-13.7-29.97-13.7"/>
  <path class="st1" d="M162.31,70.5h-53.94c.13-6.72,3.25-13.07,8.78-17.92,5.19-4.54,11.81-7.15,18.14-7.15,15.63,0,26.74,13.18,27.02,25.07M135.82,32.02c-17.59.03-42.35,13.72-42.35,44.06,0,14.84,5.21,26.83,15.07,34.67,7.36,5.85,17.48,9.34,27.09,9.34,14.33,0,25.72-5.81,33.87-17.28.17-.24.23-.53.18-.82-.06-.29-.22-.55-.47-.71l-9.83-6.63c-.49-.32-1.14-.2-1.48.28-5.41,7.59-12.8,11.29-22.58,11.29-15.57,0-26.62-11.94-26.89-22.72h66.63c.55,0,1.01-.41,1.08-.95,1.74-14.22-1.87-27.99-9.67-36.84-7.84-8.9-19-13.9-30.64-13.7"/>
  <path class="st2" d="M412.68,49.87c-.19-.24-.47-.4-.78-.42-.31-.02-.62.09-.84.32l-8.6,8.6c-.37.37-.42.95-.12,1.38,3.41,5.01,5.22,10.88,5.22,16.97s-1.8,11.95-5.22,16.97c-.3.43-.24,1.01.12,1.38l8.6,8.6c.2.2.48.32.77.32.02,0,.05,0,.07,0,.31-.02.59-.17.78-.42,5.91-7.77,9.03-17.05,9.03-26.85s-3.12-19.08-9.03-26.85"/>
  <path class="st2" d="M367.67,76.72c0,5.57,4.53,10.09,10.09,10.09s10.09-4.53,10.09-10.09-4.53-10.09-10.09-10.09-10.09,4.53-10.09,10.09"/>
  <path class="st1" d="M396.18,101.47c-.37-.37-.96-.42-1.39-.11-5.03,3.54-10.94,5.41-17.09,5.41-16.47,0-29.86-13.48-29.86-30.05s13.4-30.05,29.86-30.05c6.15,0,12.06,1.87,17.09,5.41.44.31,1.02.26,1.39-.11l8.59-8.59c.22-.22.34-.53.32-.84-.02-.31-.17-.59-.41-.78-7.76-6.06-17.07-9.27-26.91-9.27-24.23,0-43.95,19.84-43.95,44.23s19.72,44.23,43.95,44.23c9.84,0,19.15-3.2,26.91-9.27.24-.19.39-.47.41-.78.02-.31-.1-.62-.32-.84l-8.59-8.59Z"/>
  <rect class="st0" x="10.29" y="10.29" width="411.43" height="161.14"/>
  <rect class="st0" y="0" width="432" height="181.71"/>
  <g>
    <path class="st3" d="M229.29,165.71h-.27c-.81,1.08-3.18,3.77-8.35,3.77-7.05,0-12.39-5.38-12.39-14s5.33-14,12.39-14c5.22,0,7.43,2.74,8.35,3.77h.27l.54-3.23h4.84v37.69h-5.38v-14ZM229.29,155.49c0-5.6-3.5-9.15-7.81-9.15s-7.8,3.55-7.8,9.15,3.5,9.15,7.8,9.15,7.81-3.56,7.81-9.15Z"/>
    <path class="st3" d="M241.69,142.02h5.38v16.16c0,3.5,2.74,6.46,6.46,6.46,4.04,0,7-2.96,7-6.46v-16.16h5.38v26.92h-4.84l-.54-2.69h-.27c-.6.59-1.24,1.13-1.99,1.61-1.29.81-3.28,1.62-5.81,1.62-6.46,0-10.77-4.25-10.77-11.31v-16.16Z"/>
    <path class="st3" d="M289.89,165.99h-.27c-.54.7-1.18,1.29-1.94,1.78-1.29.86-3.34,1.72-6.14,1.72-5.92,0-9.69-3.45-9.69-8.35,0-5.38,3.5-8.88,11.04-8.88h6.73v-.54c0-3.5-2.16-5.66-5.66-5.66-3.77,0-5.38,2.16-5.65,3.77h-5.38c.27-4.52,4.31-8.34,11.04-8.34s11.04,3.98,11.04,10.23v17.23h-4.58l-.54-2.96ZM289.63,156.56h-6.46c-4.09,0-5.92,1.89-5.92,4.31s1.61,4.04,4.84,4.04c4.9,0,7.54-2.69,7.54-7.27v-1.08Z"/>
    <path class="st3" d="M301.76,142.02h4.84l.54,2.69h.27c.59-.59,1.24-1.13,1.99-1.61,1.29-.81,3.23-1.61,5.82-1.61,6.46,0,10.77,4.25,10.77,11.31v16.15h-5.38v-16.15c0-3.5-2.74-6.46-6.46-6.46-4.04,0-7,2.96-7,6.46v16.15h-5.38v-26.92Z"/>
    <path class="st3" d="M333.81,147.14h-4.31v-5.12h4.31v-7.54h5.38v7.54h6.19v5.12h-6.19v15.34c0,1.08.54,1.62,1.61,1.62h4.58v4.84h-5.65c-3.82,0-5.92-2.15-5.92-5.66v-16.15Z"/>
    <path class="st3" d="M350.24,142.02h5.38v16.16c0,3.5,2.74,6.46,6.46,6.46,4.04,0,7-2.96,7-6.46v-16.16h5.39v26.92h-4.85l-.54-2.69h-.27c-.59.59-1.24,1.13-1.99,1.61-1.29.81-3.29,1.62-5.82,1.62-6.46,0-10.77-4.25-10.77-11.31v-16.16Z"/>
    <path class="st3" d="M381.49,142.02h4.84l.54,2.69h.27c.54-.59,1.18-1.13,1.89-1.61,1.24-.81,2.96-1.61,5.12-1.61,2.74,0,4.52.97,5.65,1.88.65.6,1.18,1.19,1.62,1.89h.27c.54-.7,1.24-1.29,2.1-1.89,1.46-.91,3.61-1.88,6.78-1.88,5.6,0,9.69,4.31,9.69,10.44v17.02h-5.38v-16.96c0-3.5-2.15-5.65-5.38-5.65s-5.92,2.42-5.92,5.65v16.96h-5.38v-16.96c0-3.5-2.16-5.65-5.38-5.65s-5.92,2.42-5.92,5.65v16.96h-5.38v-26.92Z"/>
  </g>
</svg>